<svg width="311" height="72" viewBox="0 0 311 72" fill="none" xmlns="http://www.w3.org/2000/svg">
<path d="M124.805 37.7159C125.177 38.4113 125.535 39.1343 125.88 39.8847C126.224 40.6351 126.555 41.4038 126.871 42.1908C127.188 41.3855 127.523 40.6031 127.877 39.8435C128.23 39.084 128.593 38.3473 128.966 37.6335L139.41 17.4276C139.596 17.0798 139.787 16.8099 139.982 16.6177C140.178 16.4255 140.397 16.2837 140.639 16.1922C140.881 16.1007 141.155 16.0458 141.462 16.0275C141.77 16.0092 142.128 16 142.538 16H147.742C148.847 16 149.742 16.8954 149.742 18V54C149.742 55.1046 148.847 56 147.742 56H143.42C142.316 56 141.42 55.1046 141.42 54V32.9938C141.42 31.8774 141.476 30.6694 141.588 29.3699L130.809 49.9327C130.474 50.5733 130.022 51.0583 129.454 51.3878C128.886 51.7172 128.24 51.882 127.513 51.882H126.229C125.503 51.882 124.856 51.7172 124.288 51.3878C123.72 51.0583 123.269 50.5733 122.934 49.9327L112.098 29.3425C112.173 29.9831 112.229 30.6191 112.266 31.2505C112.303 31.8819 112.322 32.4631 112.322 32.9938V54C112.322 55.1046 111.426 56 110.322 56H106C104.895 56 104 55.1046 104 54V18C104 16.8954 104.895 16 106 16H111.205C111.614 16 111.973 16.0092 112.28 16.0275C112.587 16.0458 112.862 16.1007 113.104 16.1922C113.346 16.2837 113.565 16.4255 113.76 16.6177C113.956 16.8099 114.146 17.0798 114.333 17.4276L124.805 37.7159Z" fill="white"/>
<path d="M171.819 48.315C173.047 48.315 174.144 48.1113 175.11 47.704C176.076 47.2967 176.893 46.7128 177.561 45.9525C178.229 45.1921 178.739 44.2643 179.091 43.169C179.443 42.0738 179.619 40.8291 179.619 39.4352V18C179.619 16.8954 180.514 16 181.619 16H186.773C187.878 16 188.773 16.8954 188.773 18V39.4352C188.773 41.8611 188.381 44.0878 187.595 46.1154C186.81 48.143 185.686 49.89 184.223 51.3564C182.761 52.8228 180.982 53.9633 178.888 54.778C176.793 55.5927 174.437 56 171.819 56C169.183 56 166.818 55.5927 164.723 54.778C162.629 53.9633 160.85 52.8228 159.388 51.3564C157.925 49.89 156.806 48.143 156.029 46.1154C155.253 44.0878 154.865 41.8611 154.865 39.4352V18C154.865 16.8954 155.76 16 156.865 16H162.019C163.124 16 164.019 16.8954 164.019 18V39.408C164.019 40.802 164.195 42.0466 164.547 43.1419C164.899 44.2372 165.409 45.1695 166.077 45.9389C166.745 46.7083 167.562 47.2967 168.528 47.704C169.494 48.1113 170.591 48.315 171.819 48.315Z" fill="white"/>
<path d="M204.612 41.2025V54C204.612 55.1046 203.716 56 202.612 56H197.357C196.252 56 195.357 55.1046 195.357 54V18C195.357 16.8954 196.252 16 197.357 16H208.335C211.22 16 213.679 16.2974 215.715 16.8922C217.75 17.4871 219.411 18.3153 220.698 19.3768C221.985 20.4383 222.92 21.6921 223.504 23.138C224.089 24.5838 224.381 26.1579 224.381 27.86C224.381 29.1595 224.207 30.3857 223.86 31.5388C223.514 32.6918 222.998 33.758 222.313 34.7371C221.629 35.7163 220.789 36.5903 219.794 37.359C219.121 37.8791 218.379 38.3363 217.568 38.7308C217.549 38.7401 219.105 41.4221 219.507 42.081L226.14 52.9587C226.715 53.9018 226.417 55.1325 225.474 55.7075C225.16 55.8988 224.8 56 224.433 56H219.616C218.065 56 216.951 55.4143 216.276 54.243L209.65 42.6301C209.358 42.1176 209.015 41.7515 208.623 41.5319C208.23 41.3123 207.678 41.2025 206.966 41.2025H204.612ZM204.612 34.8058H208.335C209.595 34.8058 210.667 34.6456 211.553 34.3253C212.438 34.005 213.164 33.5612 213.729 32.9938C214.295 32.4264 214.706 31.763 214.962 31.0034C215.217 30.2439 215.345 29.4248 215.345 28.5463C215.345 26.7893 214.775 25.4166 213.634 24.4283C212.493 23.4399 210.727 22.9458 208.335 22.9458H204.612V34.8058Z" fill="white"/>
<path d="M257.184 18V21.138C257.184 22.2425 256.289 23.138 255.184 23.138H240.81V33.2684H252.446C253.551 33.2684 254.446 34.1638 254.446 35.2684V38.4338C254.446 39.5383 253.551 40.4338 252.446 40.4338H240.81V54C240.81 55.1046 239.915 56 238.81 56H233.501C232.396 56 231.501 55.1046 231.501 54V18C231.501 16.8954 232.396 16 233.501 16H255.184C256.289 16 257.184 16.8954 257.184 18Z" fill="white"/>
<path d="M299.716 54.6212C299.985 55.2791 299.501 55.9999 298.79 55.9999H298.068C297.807 55.9999 297.592 55.9346 297.424 55.8039C297.256 55.6546 297.125 55.4679 297.032 55.2439L292.356 43.7359H272.896L268.248 55.2439C268.173 55.4492 268.043 55.6266 267.856 55.7759C267.669 55.9252 267.445 55.9999 267.184 55.9999H266.49C265.779 55.9999 265.295 55.2791 265.564 54.6212L280.704 17.6225C281.011 16.8709 281.743 16.3799 282.555 16.3799H282.725C283.537 16.3799 284.269 16.8709 284.576 17.6225L299.716 54.6212ZM273.764 41.6079H291.516L283.424 21.5879C283.293 21.2706 283.163 20.9159 283.032 20.5239C282.901 20.1132 282.771 19.6839 282.64 19.2359C282.509 19.6839 282.379 20.1132 282.248 20.5239C282.117 20.9159 281.987 21.2799 281.856 21.6159L273.764 41.6079Z" fill="white"/>
<path d="M310.474 54.9999C310.474 55.5522 310.026 55.9999 309.474 55.9999H308.59C308.037 55.9999 307.59 55.5522 307.59 54.9999V17.3799C307.59 16.8276 308.037 16.3799 308.59 16.3799H309.474C310.026 16.3799 310.474 16.8276 310.474 17.3799V54.9999Z" fill="white"/>
<path d="M255 53.5575C255 53.2092 255.064 52.8792 255.193 52.5675C255.321 52.2558 255.495 51.99 255.715 51.77C255.953 51.5317 256.219 51.3483 256.513 51.22C256.824 51.0733 257.163 51 257.53 51C257.878 51 258.208 51.0733 258.52 51.22C258.832 51.3483 259.098 51.5317 259.318 51.77C259.556 51.99 259.739 52.2558 259.868 52.5675C260.014 52.8792 260.088 53.2092 260.088 53.5575C260.088 53.9242 260.014 54.2633 259.868 54.575C259.739 54.8683 259.556 55.1342 259.318 55.3725C259.098 55.5925 258.832 55.7667 258.52 55.895C258.208 56.0233 257.878 56.0875 257.53 56.0875C256.815 56.0875 256.21 55.8492 255.715 55.3725C255.238 54.8775 255 54.2725 255 53.5575Z" fill="white"/>
<path d="M52 8C52 3.58172 55.5817 0 60 0H64C68.4183 0 72 3.58172 72 8V64C72 68.4183 68.4183 72 64 72H60C55.5817 72 52 68.4183 52 64V8Z" fill="#FFCE00"/>
<path d="M26 26C26 21.5817 29.5817 18 34 18H38C42.4183 18 46 21.5817 46 26V46C46 50.4183 42.4183 54 38 54H34C29.5817 54 26 50.4183 26 46V26Z" fill="#FFCE00"/>
<path d="M0 8C0 3.58172 3.58172 0 8 0H12C16.4183 0 20 3.58172 20 8V64C20 68.4183 16.4183 72 12 72H8C3.58172 72 0 68.4183 0 64V8Z" fill="#FFCE00"/>
</svg>
